<?xml version="1.0" encoding="UTF-8"?><svg id="Layer_1" xmlns="http://www.w3.org/2000/svg" viewBox="0 0 2048 2048"><defs><style>.cls-1{fill:#fbf4d4;}.cls-2{fill:#fdfdfb;}.cls-3{fill:#b79446;}.cls-4{fill:#bd9c4c;}.cls-5{fill:#b9994e;}.cls-6{fill:#fdfdf6;}.cls-7{fill:#b19e6c;}.cls-8{fill:#fdfcf2;}.cls-9{fill:#fefefc;}.cls-10{fill:#b79850;}.cls-11{fill:#fbf6d3;}.cls-12{fill:#fefefd;}.cls-13{fill:#bb9a4c;}.cls-14{fill:#bd9c4d;}.cls-15{fill:#fdfdfc;}.cls-16{fill:#b1924a;}.cls-17{fill:#fefdfa;}.cls-18{fill:#fdf7d5;}.cls-19{fill:#b79b56;}.cls-20{fill:#fdfdfa;}.cls-21{fill:#fcf9e0;}.cls-22{fill:#bb9b4e;}.cls-23{fill:#fdfdfd;}</style></defs><rect class="cls-23" width="2048" height="2048"/><path class="cls-5" d="M992.79,338.29c338.05-15.15,638.13,229.32,683.06,565.35,61.59,460.58-350.22,834.54-803.23,733.23-364.02-81.4-585.91-449.14-488.34-811.09,73.87-274.03,324.07-474.74,608.51-487.49Z"/><path class="cls-6" d="M990.79,356.29c347.88-14.05,639.73,235.63,671.2,583.22,34.78,384.12-282.21,713.38-666.45,696.45-386.54-17.03-669.1-356.42-608.25-741.17,46.6-294.62,304.47-526.42,603.5-538.5Z"/><path class="cls-5" d="M994.79,371.29c349.74-14.68,640.08,253.96,653.25,603.16,13.79,365.67-295.12,663.21-658.55,644.55-388.53-19.95-664.4-376.64-579-759.02,60.75-272.02,304.94-476.97,584.31-488.69Z"/><path class="cls-8" d="M997.79,389.29c258.34-10.54,497.59,144.09,590.96,384.46,126.93,326.75-47.93,691.75-378.98,798.52-364.89,117.68-742.45-120.04-791.64-498.9-45.7-351.95,226.89-669.68,579.67-684.08Z"/><path class="cls-19" d="M997.79,403.29c301.91-12.62,568.95,204.97,612.08,504.33,60.37,418.98-320.64,762.8-731.51,663.51-327.21-79.08-521.26-413.86-427.87-739.13,69.69-242.72,294.5-418.14,547.29-428.71Z"/><path class="cls-12" d="M992.79,414.29c359.54-18.06,655.45,294.66,608.04,654.04-43.63,330.71-356.91,560.84-687.04,499.37-351.62-65.47-561.63-425.39-441.81-765.23,76.99-218.38,288.67-376.52,520.81-388.19Z"/><path class="cls-4" d="M1176,817v19c-18.49.91-36.15-.54-41.51,20.99-1.27,5.08-2.22,12.24-2.53,17.47-2.04,34.24-2.07,82.86,0,117.08.21,3.42,1.24,7.03,1.55,10.47,1.07-.02,12.25-9.39,14.02-10.98,38.96-35.14,74.61-76.92,113.5-112.5,6.82-8.06,10.61-14.74,8.74-25.79-2.67-15.76-25.06-17.18-37.76-16.74v-19h150.5c.11,0,1.5,1.39,1.5,1.5v17.5c-41.62-2.19-68.33,33.46-95.47,59.03-15.6,14.69-31.7,29.01-47.05,43.95-6.55,6.37-17.83,16.22-22.99,23-2.62,3.44-3.09,4.63-.49,8.54,10.67,16.04,28.08,33.85,40.42,49.57,22,28.05,43.17,56.78,65.19,84.81,15.19,19.33,31.39,42.38,47.88,60.12,12.75,13.71,25.56,24.03,45.51,23.99v18h-198.5c-2.41,0-1.92-15.58-.36-17.86,13.05-.6,36.22.49,33.77-18.55-1.14-8.85-26.64-40.38-33.51-49.48-24.44-32.4-50.22-63.87-75.09-95.95-6.28-1.95-10.73,8.2-11.31,13.34,1.73,37.09-2.28,76.2-.04,113.04,1.46,23.91,8.82,34.69,33.56,37.44,1.98.22,10.49-.79,10.49,1.51v16.5h-128c-.22-5.21,5.16-8.61,5.94-13.56,2.59-16.64-8.35-31.86-23.94-36.45,6.59-11.73,4.05-23.83,6.04-36.45-3.04-78.18,3.9-159.24,0-237.09-.78-15.51-1.72-37.36-18.06-43.94-2.42-.98-11.37-3.51-13.49-3.51h-15.5v-19h187Z"/><path class="cls-14" d="M684,1071c18.9,60.28,53.49,126.19,127.49,118.99,39.46-3.84,58.66-48.11,40.03-82.01-26.39-48-124.13-65.5-164.03-111.97-41.26-48.05-32.08-127.07,18.18-164.85,36.12-27.15,84.48-33.43,127.76-22.09,15.16,3.97,41.49,18.39,55.51,8.36,2.88-2.06,6.57-9.43,8.57-9.43h15.5c1.38,13.15.38,26.38.96,39.54,1.21,27.57,3.08,55.31,4.08,82.91.07,1.82.49,9.55-1.54,9.55h-18.5c-11.32-43.53-35.87-93.96-83-106.5-41.75-11.11-76.86,13.28-72,58,2.65,24.45,31.29,39.03,50.33,49.67,54.84,30.64,130.84,52.56,147,122,24.18,103.89-72.19,167.22-166.53,150.53-19.27-3.41-53.14-18.31-70.23-15.65-3.91.61-9.09,4.38-11.53,7.47-1.18,1.5-3.37,6.37-3.72,6.49-4.24,1.47-12.56-.98-17.31-.02l-3.99-141.01h17Z"/><path class="cls-13" d="M891,546c3.47-11.8,1.97-7.68-5.32-12.18s-16.03-11.54-15.68-20.82c9.43-2.34,13.6,6.97,20.31,11.19,28.23,17.76,59.73-12.45,86.84-18.55,10.82-2.44,23.37-3.68,33.84.36-.5-4.03,5.5-10.08,5.78-12.65.48-4.46-3.96-12.8-2.32-22.42.55-3.23,9.24-23.52,11.07-23.94,3.12-.73,9.91,15.2,10.77,18.22,2.71,9.57,1.96,17.65-.26,27.25l6.63,13.46c10.83-2.27,20.51-2.52,31.41-.48,28.28,5.31,62.39,37.83,90.28,17.38,5.4-3.96,10.21-12.86,18.24-8.9,2.81,3.96-6.41,14.07-9.63,16.5s-12.37,4.86-11.78,8.82l68.93,163.24c.73,8.18-10.13,19.94-16.07,25.02-31.71,27.09-97.9,25.13-124.43-8.6-4.09-5.2-10-13.42-6.06-19.9,20.2-46.22,40.72-92.41,59.95-139.05,1.06-2.57,8.42-20.11,7.53-20.96-29.45,6.02-52.99-15.61-82.48-12.99-3.94.35-23.66,5.61-25.32,8.18-.92,1.42-.59,8.25-1.72,10.78s-6.76,5.09-7.31,6.69c1.9,59.46,4.39,118.81,8.5,178.18,4.03,8.06,12.99,11.53,18.89,18.11,1.36,1.51,1.42,3.86,3.02,4.98,2.74,1.9,8.61,2.11,12.76,5.24,3.59,2.7,3.98,6.8,6.73,8.27,2.46,1.31,6.88,1.74,9.91,3.09,6.81,3.02,11.5,9.55,14.02,16.48h-163c.2-8.3,9.54-16.2,16.98-18.52,2.35-.73,5.18-.04,7.04-.96,1.71-.84,3.51-7.81,9.74-10.26,3.15-1.24,7.76-.85,9.26-1.74.71-.42,7.67-10.94,9.94-13.06,3.34-3.14,10.11-5.76,11.6-10.4.65-2.03,1.17-7.11,1.43-9.57,5.6-52.6,5.45-111.68,7.02-164.97.05-1.86,1.38-4.23,1.07-5.83-.09-.46-5.71-3.88-6.95-6.31-1.55-3.03-.81-6.15-2.02-8.98-2.01-4.72-20.34-8.97-25.62-9.38-25.31-1.97-43.38,13.98-62.98,13.98h-16c-.21,0-1.13-1.49-1.49-1-.4,2.75.84,5.33.99,8,1.06,2.7,1.71,5.51,1.94,8.43,2.5,2.97,2.05,9.9-1.94,5.57-2.96.46-3.56-4.39-2-6-.69-.51-1.35-.52-2,0,.89.19.85.52,0,1-.78,3.96-5.81,4.33-5.69-.12-4.7-.25-6.13-3.54-4.31-9.88Z"/><path class="cls-22" d="M1043.99,1182l-9.99-3.99c3.01,4.58,9.02,2.54,9.9,8.54,1.05,7.14-1.27,15.3-6.84,20.01s-24.49,2.28-19.07,15.43l-7.99-3.99c5.08,5.5,11.72,4.31,8.79,14.29-1.97,6.7-10.4,3.65-11.27,4.65-5.49,10.96-12.36,21.2-18.04,32.03-2.21,4.22-9.48,17.22-9.98,20.91-.55,4.02,7.63,4.28,2.92,12.03-5.22,8.58-14.26.07-15.41,1.09,1.4,3.29-.14,6.66-.06,10.53.03,1.47,1.42,6.14,1.07,6.46-.5.46-3.33-.97-3,.99,4.72.66,4.54,9.65,3.93,13.45-.82,5.1-6.57,12.35-11.87,13.13-2.39.36-4.84-1.09-7.37-.58-.98.2-2.18,4.86-8.47,3.35-20.06-10.68-42.58-20.41-61.89-32.18-4.51-2.75-9.97-6.01-9.33-12.16,4.53-1.01,7.72,4.02,11.99,3.5-6.38-4.88-13.49-4.11-14.04-14.04-.39-7.04,6.36-16.01,13-18.01,2.37-.71,4.89-.03,7.03-.97,1.27-.56,9.4-9.54,10.01-10.99-4.9-2.55-9.84-8.05-6.77-13.76,1.93-3.59,7.05-2.28,9.73-4.28.85-.63,4.26-7.09,5.22-8.78,8.54-15.05,16.36-30.95,24.62-46-2.66-3.5-3.9-5.8-1.66-10.05,3.9-7.38,9.24-2.33,12.87-4.1,2.69-1.32,3.49-8.49,6.71-9.39,4.49-1.26,9.49,5.73,14.29,4.86l-16.94-9.55c-8.18-6.34-1.39-23.51,7.5-25.38,1.86-.39,4.11.34,5.74-.03,1.23-.28,1.03-3.61,4.24-4.05,6.63-.92,27.34,10.35,34.12,13.86,11.71,6.05,26.22,13.76,37.25,20.75,4.97,3.15,10.18,5.49,9.07,12.42Z"/><path class="cls-14" d="M1023.6,1261.07c23.25,15.82,46.81,30.95,71.73,44.1,54.5,28.77,115.85,51.17,167.59,84.41,15.16,9.74,26.78,15.71,16.11,34.94-6.65,12-11.91,10.92-23.99,6.93-23.35-7.7-52.67-26.93-73.96-40.04-42.48-26.16-85.03-58.9-129.87-80.13-7.16-3.39-41.67-15.99-43.77-20.31-.44-.9-.26-1.14-.05-1.97.67-2.72,14.63-27.55,16.21-27.93Z"/><path class="cls-13" d="M1005,1410c20.3.79,27.06,5.82,29.88,26.62.29,2.16,1.1,8.26,1.05,9.98-.05,1.89-1.21,1.7-1.93,2.4l-.95.68c-91.82,1.3-183.62,1.2-275.41-.3-3.43-19.25,4.34-40.92,27.41-41.13,69.03-.65,138.14-.95,207.17-.67,4.34.36,8.6,1.17,12.78,2.42Z"/><path class="cls-13" d="M901,699l1.29-1.65c15.27,1.22,30.61,1.45,46.02.68l1.69,1.98,5.2,1.29c16.8-2.21,13.64,8.67,7.8,19.71-31.75,36.23-119.96,34.05-138-14-2.35-4.13,3.26-12.66,7-8l1.38-1.54c19.48,1.26,40,2.4,59.59-.06l2.03,1.61c1.11-4.3,5.68-5.55,6,0Z"/><path class="cls-10" d="M1004,1392c2.43,5.16,3.62,6.15,2,12l-1.92,2h-214.84c-4.69-.62-2.59-7.79-1.34-11.22,2.8-7.68,8.53-12.12,16.89-11.83,62.67.61,125.29.61,187.86,0,4.65,1.06,8.44,4.08,11.35,9.05Z"/><path class="cls-18" d="M1004,1392c-3.58-1.81-5.21-6.78-9.45-7.05h-195.1c-6.79.9-11.66,12.68-11.45,19.05h218c-.54,1.97-2.55,3.37-1,6-74.77-2.91-151.44,2.1-226.41.09-16.53,2.27-20.91,25.35-20.59,38.92h276.01c-.78.75-.43,1.63-2.48,1.98-3.09.53-10.38.88-13.98,1.06-8.75.44-18.22-.03-27.08,0-72.79.28-146.2-1.1-218.97-1.05-4.82,0-13.31,1.63-15.9-3.08-4.17-7.55,3.75-29.18,9.92-34.91,4.75-4.42,16.56-6.21,18.23-8.27,1.24-1.53,1.04-6.51,1.72-8.78,5.46-18.23,23.43-15.26,39.08-15,41.05.69,82.01,1.51,122.98.95,11.15-.15,20.19-1.34,30.99-1.9,12.73-.67,19.82-.08,25.49,11.99Z"/><path class="cls-7" d="M891,546c1.54,2.03.43,5.16,1.47,7.11.45.86,2.42-.19,3.02.86,1.65,2.87-.95,4.21,5.51,2.03.88,4.29,1.73,8.62,1.77,13.01.37,41.14.7,82.43-.34,123.51l-1.43,6.48c-.64-.32-.84-2.06-1.47-1.95-.66.11-2.73,1.51-4.53,1.95l-2-.69-.75-132.18-57.93,132.56-2.32.32c-3.82-.07-7.33,4.21-7,8-.19-.51-1.6-1.11-1.75-2.57-.31-3.11,7.16-16.61,8.93-20.75,19.57-45.91,38.67-92.03,58.82-137.68Z"/><path class="cls-7" d="M963,721c-.04-3.99,5.73-16.06.34-17.84-3.48-1.15-10.1,1.05-13.34-3.16,3.12-2.19,6.7-2.22,10.36-1.99-18.72-43.37-36.84-86.96-54.35-130.76l-1-6.25c4.13.5.2-3.19-.06-5.44-.3-2.65.21-5.78.06-8.56,1.4.99,1.83,2.55,2.47,4.03,21.59,50.15,40.76,101.42,64.34,150.69,1.26,5.53-5.19,15.15-8.81,19.28Z"/><path class="cls-3" d="M1291.72,1410.19c16.15-3.57,13.45,24.56.61,32.64-7.85,4.94-16.53-1.54-15.29-10.25.59-4.16,10.33-21.42,14.68-22.38Z"/><path class="cls-16" d="M1002.82,1260.77c.37-.59-.69-2.06-.25-2.77,1.61-2.58,4.69-6.92,7.93-7.1,4.81-.26,8.89,4.91,8.56,9.59-.26,3.6-12.62,26.65-15.5,28.59-3.69,2.48-13.6-1.39-13.64-6.56-.03-3.4,7.96-16.24,10.23-19.91.72-1.17,2.39-1.39,2.68-1.85Z"/><polygon class="cls-15" points="1222 700 1159 700 1159 553 1222 700"/><path class="cls-20" d="M903,555c.73,2.34,1.08,3.61,2,6,17.81,46.12,38.96,91,57.81,136.7l.19,2.3c-4.32.04-8.68-.04-13,0-8.1.09-44.45,1.26-49-1,.82-47.62-1.09-95.4,0-143,0-.33-.01-.67,0-1,.26-2.4.98-2.09,2,0Z"/><polygon class="cls-9" points="1153 700 1091 700 1153 557 1153 700"/><path class="cls-7" d="M903,555h-2c.04-1.04-.43-4,.5-4.01.69.98,1.11,2.76,1.5,4.01Z"/><path class="cls-2" d="M907.16,1252.86c-.7-1.11-.15-3.54.4-4.8l28.52-51,24.49,12.92-29.59,53.58c-1.05.75-1.93.3-2.99.03-1.58-.39-20.21-9.74-20.84-10.73Z"/><path class="cls-21" d="M952.13,1154.89c-1.88-2.99,2.51-7.23,6.27-6.89,2.18.2,14.53,7.59,14.45,9.29-.09,1.92-2.07,5.66-4.32,5.69-.91.01-15.91-7.32-16.4-8.09Z"/><path class="cls-11" d="M881.71,1288.16c3.39-.79,23.36,8.74,13.27,13.33-3.7,1.68-16.18-5.73-16.91-8.12-.55-1.81,2.09-4.85,3.65-5.21Z"/><path class="cls-17" d="M807,1416c.88.88-4.22,22.31-5.22,24.28-.5.97-2.49,2.72-3.28,2.72h-26c-1.04,0-1.55-2.23-1.49-3.39.11-2.06,5.45-20.28,6.53-21.56.44-.52,2.58-2.05,2.95-2.05h26.5Z"/><path class="cls-12" d="M895,699c-13.68,3.31-43.83.99-59.62,1.07-1.81,0-3.2-1.07-3.38-1.07l62.5-143.01.5,143.01Z"/><path class="cls-1" d="M839,1391c-.5,1.1-2.57,8-3,8h-38c-.49-1.43,2.92-8,3.5-8h37.5Z"/></svg>