<?xml version="1.0" encoding="UTF-8"?><svg id="Layer_1" xmlns="http://www.w3.org/2000/svg" viewBox="-46 -46 1572.76 1569.1"><defs><style>.cls-1{fill:#c9a84c;}</style></defs><path class="cls-1" d="M703.12.8c442.73-20.15,803.37,344.45,776.2,787.2-21.75,354.45-309.63,650.9-662.5,685.5C374.44,1516.88-12.07,1162.71.29,716.96,10.8,337.75,323.73,18.06,703.12.8ZM730.12,19.8C353.61,26.05,33.08,331.42,20.29,709.96c-15.11,447.38,375.8,799.97,819.4,741.4,318.48-42.05,580.75-309.26,616.52-628.48C1504.58,391.15,1165.17,12.57,730.12,19.8Z"/><path class="cls-1" d="M712.12,38.8c444.86-17.61,794.94,379.02,719.89,818.89-50.49,295.89-296.05,534.94-594.33,574.67C398.29,1490.89,7.21,1131.26,40.34,687.01,66.53,335.82,360.07,52.74,712.12,38.8ZM702.12,59.8C346.77,75.72,57.2,385.57,58.25,740c1.42,480.96,502,814.13,947.05,624.97,387.95-164.89,538.43-638.59,307.05-995.99C1178.35,161.99,948.79,48.74,702.12,59.8Z"/><path class="cls-1" d="M711.12,75.8c430.91-18.08,766.85,371.38,680.91,795.91-45.72,225.82-212.03,414.24-428.19,491.81-438.87,157.49-904.74-184.03-888.56-648.56C87.19,373.42,369.92,90.11,711.12,75.8ZM718.12,87.8C348.63,101.83,60.18,422.13,89.34,791.99c33.27,421.96,471.86,704.62,871.51,559.53,284.81-103.4,465.9-391.02,427.34-694.38-42.28-332.63-333.72-582.12-670.06-569.35Z"/><path class="cls-1" d="M1180.33,583.5c-11.55.89-22.64,1.21-33.78,4.72-25.05,7.89-54.52,36.97-74.23,54.77-31.29,28.26-61.47,57.96-91.96,87.07-.85.81-1.82,1.38-3.02,1.46l.02,1.45c34.59,38.93,66.64,80.04,100,120,28.71,34.38,58.87,73.56,88.95,106.05,17.57,18.98,36.66,33.8,64.03,33.47v20h-245c1.34-5.93,1.84-13.14,0-18.99,16.37-1.36,43.86,1.17,41.99-22.5-.88-11.08-21.36-33.35-29.01-42.99-34.93-43.96-71.37-86.76-106.66-130.44-2.09-.54-13.8,7.89-14.3,10.43l-.06,147.02c.95,6.7,1.21,12.62,4.17,18.83,8.25,17.35,34.23,17.7,50.88,18.62v20h-156c.22-3.01,2.68-4.91,3.78-7.72,7.55-19.36.82-43.5-18.62-52.43l.89-327.39c-1.78-30.2-14.76-38.68-43.56-41.44-4.1-.39-9.45,1.32-12.49-1.51v-18.5h225v20c-19.15,2.22-44.25-.67-51.28,22.22-.9,2.92-2.72,10.64-2.72,13.28v159.5c2.98-1.15,6.6-4.35,9.01-6.49,39.32-34.86,79.8-75.49,117.51-112.49,9.9-9.71,22.74-21.19,31.5-31.5,6.03-7.09,9.21-13.16,7.88-22.94-2.66-19.6-32.62-21.35-47.91-21.58v-20h182.5c.35,0,1.11-1.77,2.5.5v19.5Z"/><path class="cls-1" d="M579.33,554.5h20l5.01,149.01-21.91.91c-16.16-65.99-64.75-129.03-139.58-122.9-63.03,5.16-77.92,68.69-28.41,107.38,78.07,61.02,238.12,82.85,215.76,218.96-17.28,105.15-140.2,130.03-228.87,109.16-25.36-5.97-73.21-29.58-86.99,3.49h-19l-7-168h20.5c.23,0,.54-.74,1.01-.77l1,.72c18.39,72,68.99,148.96,152.98,143.04,75.02-5.29,87.14-80.97,29.23-123.21-63.07-46-172.36-69.75-199.01-152.99-16.55-51.68,2.88-107.84,46.56-139.01,50.76-36.22,113.07-33.79,171.14-19.7,22.31,5.41,53.93,22.02,67.58-6.08Z"/><path class="cls-1" d="M512.83,441.5c-1.36-.42-1.82-2.97-1.55-4.34l80.09-180.09c-4.84-2.51-9.73-4.59-14.05-8.06-2.12-1.7-17.23-17.44-14.98-19.51,9.65-1.3,15.24,7.55,22.08,12.41,35.18,25,74.93-18.5,110.43-21.4,9.93-.81,19.67,1.03,29.48,1.99l.91-10.36,6.09-1.65c-10.09-18.08-2.1-34.89,5.54-52,.5-1.13-.01-2.52,1.95-2,1.6.42,11.97,27.2,12.43,30.59.75,5.64-.69,16.46-2.94,21.7-.49,1.13-2.36.16-1.97,1.71l6.56.94c.78,2.54-.05,11.06,3.06,11.99,9.09-1.97,18.5-3.59,27.86-2.9,34.42,2.51,58.31,31.68,95,27.97,16.84-1.7,21.33-18.82,37.51-18.98,2.11,2-10.32,16.09-12.47,18.02-4.61,4.15-9.94,6.89-15.52,9.46l79.99,184.51h-166.5l-1.44-4.95c1.06-.06,2.19.27,3.02-.67,1.82-2.05,9.15-20.38,11.1-24.7,20.83-46.36,43.65-95.84,61.99-143.01,1.22-3.13,3.08-6.22,2.83-9.66-32.59,6.79-61.17-17.53-93.48-14.99-10.36.81-20.62,5.2-30.52,7.98v15h-8.01s8.14,205.37,8.14,205.37l.82,1.18c9.11-.11,11.24,6.59,17.03,11.97,1.8,1.67,6.13,3.55,7.09,4.91,1.35,1.93.51,5.16,1.86,6.14,3.03,2.22,9.51-2.75,15.5,5.5,1.21,1.66,3.22,7.29,3.8,7.7,2.49,1.79,8.74-.05,13.11,3.38,2.84,2.23,3.26,5.73,4.97,7.54,3.17,3.36,10.46,1.21,8.69,9.31h-180l.46-6.05c9.35-2.04,8.93-11.82,19.09-11.99,25.96-.43,58.07.13,83.94,2.04,19.61,1.45,39.92,6.6,59.03,7.98,1.22.09,3.71.51,4.48-.48-6.18-12.59-21.73-7.96-33.53-8.47-10.23-.44-20.71-1.13-30.92-2.08l-76.54.04c-1.8-1.62,9.7-11.68,12.44-12.05,13.43-1.79,44.03-.44,58.04,1.07,14.02,1.51,29.08,7.03,43.03,7.97,1.17.08,8.51.97,7.48-1.47-7.18-10.32-17.84-6.94-28.53-7.47-9.52-.47-19.4-1.79-28.92-2.08-13.48-.41-27.06.39-40.54.04-1.11-8.57,5.67-7.62,10.5-12,3.77-3.43,4.5-9.11,10.24-9.78l24.27.79c-1.6,3.01,8.55,13.29,10.93,14.56,3.15,1.69,11.77,2.03,15.86,2.17,1.63.06,2.03.48,3.19-1.24-4.97-3.38-10.56-13.66-15.95-15.03-5.09-1.3-16.76-2.02-22.54-2.46-3.8-.29-7.69.18-11.5,0l8.02-206.43-7.53-1.56-1.59-14.91c-20.37-6.35-36.03-9.28-57.11-3.82-11.78,3.06-32.1,12.72-43.28,12.72h-18c-.25,0-3.18-2.6-2.45.44.86,3.54,3.94,9.77,5.48,13.53,21.86,53.54,46.1,106.14,68.59,159.41,1.3,3.91,6.08,3.79,4.88,8.62h-166.5ZM742.27,209.45c0-5.15,4.05-9.63,4.82-14.68.99-6.51-2.35-15.58-4.74-21.78-.92-2.38-1.75-6.14-4.01-7.48,1.36,11.26,5.68,22.76,3.75,34.26-.59,3.54-3.24,6.29-3.76,9.73l3.94-.05ZM740.33,252.5c1.92.42,2.39-.98,3.4-2.09,1.7-1.88,10.54-12.94,10.58-14.38-1.26-5.72-10.42-18.83-16.53-18.47-5.12,2.53-13.34,12.64-13,18.47.19,3.29,8.84,12.64,11.54,15.48l-9.79-17.35c.22-2.24,7.47-9.93,9.51-10.52,4.91-1.42,9.48,8.71,13.11,11.35-4.19,5.45-8.7,10.06-8.82,17.5ZM740.33,266.5v204h10c-3.52-67.52-4.95-135.09-8-202.52l-2.01-1.48ZM670.33,436.5l-72.5-168.01-.5,168.01h73ZM960.33,436.5l-73-168v168h73ZM809.33,436.5h71.5l1.5-1.5v-165.5l-73,167ZM592.33,436.5v-166l-72,166h72Z"/><path class="cls-1" d="M755.33,1275.5l-314.01-.51c3.27-16.12,3.48-38.64,23.6-42.4l265.95-.13c20.91,2.86,22.24,26.28,24.45,43.04ZM498.33,1240.5h-33.5c-6.66,7.42-10.17,18.24-11.5,28h34.5c2.08-3.96,2.46-9.31,4.04-13.96,1.66-4.89,4.2-9.44,6.46-14.04Z"/><path class="cls-1" d="M727.6,1103.23c-5.4-5.29,1.5-16.04,4.56-21.4,3.01-5.27,7.66-15.69,14.89-12.57,59.29,48.3,132.87,75.87,200.63,110.39,19.6,9.98,41.14,20.6,59.56,32.44,6.33,4.06,23.37,13.97,23.14,21.88-.18,6.02-10.23,24.3-16.8,25.36-7.56,1.23-39.66-15.25-47.92-19.65-68.83-36.64-132.9-90.42-203.65-122.35-6.3-2.85-31.25-11.01-34.4-14.1Z"/><path class="cls-1" d="M691.38,1101.44c9,.82,4.54,12.72-1.8,13.92-3.02.58-12.07-6.15-15.58-8.03-25.38-13.6-50.63-27.39-76.01-40.99-8.65-4.56-2.38-17.46,6.28-13.84l34.64-61.95c.31-1.9-3.38-3.01-3.12-6.14.38-4.59,6.28-10.93,11.26-8.15,26.29,16.01,53.4,30.69,80.22,45.8,2.02,1.14,4.55,1.45,6.4,2.6,9.76,6.08,1.62,20-7.87,12.95l-.96.9-33.47,62.94ZM673.33,1007.52l-29.02-13.6-34.56,62.6,28.59,14.56,34.98-63.57Z"/><path class="cls-1" d="M965.33,444.5c-9.77,25.16-41.3,37.97-66.52,40.98-33.42,3.99-81.3-7-95.48-40.98h162Z"/><path class="cls-1" d="M676.33,444.5c-11.84,30.36-55.49,43.55-85.49,41.99s-63.74-14.67-76.51-41.99h162Z"/><path class="cls-1" d="M474.33,1225.5c-.16-11.83,8.1-22.36,20.46-22.04l211.05.04c10.8,1.3,16.42,10.24,17.58,20.42-.06.35-3.36,1.58-3.58,1.58h-245.5ZM486.83,1218.5c12.5-1.71,28.6,1.27,41.5,0l5.49-9.01c-12.51,3.56-30.83-1.49-42.78,1.22-3.49.79-6.15,5.26-5.7,8.79.37.5,1.21-.96,1.49-1Z"/><path class="cls-1" d="M579.05,1084.73c2.59-.54,5.71-.59,8.23.32,22.36,13.38,46.08,24.43,68.72,37.27,4.96,2.81,17.27,8.94,20.71,12.29,10.65,10.36-2.53,31.51-16.68,24.67l-87.64-47.35c-10.16-7.09-4.77-24.82,6.66-27.2ZM603.33,1104.52l-20.67-10.87c-4.08,2.07-8.62,7.26-3.66,10.7,1.72,1.19,16.88,9.19,17.88,9.17,2.55-.06,5.17-6.8,6.45-8.99Z"/><path class="cls-1" d="M663.04,930.72c4.96-1.13,7.21.33,11.31,2.27,29.52,13.94,58.17,34.92,87.92,49.08,13.76,10.22-3.64,32.4-18.63,23.63l-86.23-47.77c-9.74-6.21-4.5-24.9,5.64-27.22ZM687.31,950.55c-5.52-.39-15.38-9.61-19.55-10.08-.88-.1-1.7-.05-2.43.52l-3.9,6.19c-.28,3.09,18.58,10.56,21.42,13.21l4.46-9.84Z"/><path class="cls-1" d="M746.33,1008.51c.7,4.02-4.33,1.77-5.96,2.5-5.11,2.27-5.13,8.11-6.53,12.49l-83.5-47.01c6.22-4.82,8.53-7.87,6-15.98l83.59,46.9,6.41,1.1Z"/><path class="cls-1" d="M683.33,1116.49c-4.39,1.21-8.61,3.2-7.99,8.43.11.91,3.99,7.87.51,6.57l-87.51-48.48c1.76-3.19,6.53-2.06,8.45-4.55,2.12-2.75.97-6.96,2.04-9.95l84.5,47.98Z"/><path class="cls-1" d="M1036.02,1233.69c5.92-1.82,13,3.33,14.63,8.98,2.69,9.32-8.7,30.11-19.73,28.8-4.52-.54-11.09-6.64-10.43-11.24.2-1.35,11.63-22.24,12.99-24.08.75-1.03,1.15-2.04,2.54-2.46Z"/><path class="cls-1" d="M673.33,927.52c6.54-3.6,10.63-1.01,16.67,1.82,18.01,8.44,51.07,26.61,67.25,37.75,3.75,2.58,8.6,5.44,8,10.8l-2.99,1.21-88.93-51.57Z"/><path class="cls-1" d="M574.68,1125.15c-2.16-2.04-4.22-6.14-4.37-9.15-.08-1.57-.19-1.71,1.5-1.49l87.5,48.49c-2.69,3-7.15,3.22-10.71,1.72l-73.93-39.57Z"/><path class="cls-1" d="M725.06,1057.65c5.84-.42,13.72,4.49,12.07,11.09-5.13,5.25-11.06,23.63-15.71,27.34-5.4,4.31-17.38.49-14.84-8.84.73-2.66,12.67-22.93,14.92-26.07.99-1.38,1.9-2.82,3.56-3.52Z"/></svg>