<?xml version="1.0" encoding="UTF-8"?><svg id="Layer_1" xmlns="http://www.w3.org/2000/svg" viewBox="-80 -80 857.46 853.79"><defs><style>.cls-1{fill:#bc9b4d;}</style></defs><path class="cls-1" d="M331.45.51c274.9-14.56,457.6,283.01,318.01,522.01-141.19,241.75-505.07,224.29-618.98-31.63C-69.42,266.47,88.05,13.4,331.45.51ZM344.45,9.51C81.37,12.99-80.67,306.27,62.24,530.14c138.1,216.33,463.82,202.97,584.94-22.89C769.52,279.08,601.59,6.11,344.45,9.51Z"/><path class="cls-1" d="M326.45,18.51c257.45-15.4,435.31,252.14,314.38,482.38-116.52,221.84-437.08,236.02-571.59,24.24C-64.23,315,78.92,33.32,326.45,18.51ZM333.45,27.51C120.23,38.22-25.52,251.65,45.63,454.74c83.35,237.91,402.2,287.31,556.42,88.38,167.67-216.3,3.5-529.26-268.6-515.6Z"/><path class="cls-1" d="M125,128.57c178.29-180.14,490.27-85.73,532.38,164.42,40.17,238.64-191.07,430-418.5,347.5C26.65,563.51-34.15,289.37,125,128.57ZM337.45,40.51C98.43,52.41-43.31,319.78,93.84,520.53c125.51,183.72,398.5,175.12,516.23-12.4,129.89-206.88-30.25-479.68-272.62-467.62Z"/><path class="cls-1" d="M429.65,253.22v10c-6.99-.24-17.79.21-20.8,7.7-.51,1.26-2.2,7.89-2.2,8.8v70.5c2.21-.12,4.36-2.14,6.01-3.49,8.47-6.9,17.36-17.66,25.46-25.54,10.95-10.64,26.68-23.41,36.04-34.96,12.25-15.12,2.56-24.46-14.52-23.01v-10.01h80v10c-10.58-.87-20.29,3.66-28.47,10.02-20.15,15.68-38.21,38.42-58.08,54.91l-1.48,4.5,83.52,106.57c5.59,6.07,13.17,9.67,21.46,10.04l.05,8.95h-105v-9c8.85-.05,20.86.22,17.53-12.03-1.25-4.6-18.9-26.33-23.11-31.88-10.33-13.6-21.55-26.57-31.54-40.45-3.92-4.34-7.38.33-7.9,4.84-1.61,13.98-1.35,48.74.15,62.9,1.46,13.75,10.22,16.58,22.88,16.62v9.01s-67-.01-67-.01c3.82-7.71,4.65-14.13-1.6-20.89-1.8-1.94-7.28-4.29-7.36-6.51l2-9.05c-3.03-45.12,3.99-95.39-.16-139.91-1.49-16-8.24-19.54-23.88-18.62v-10.01h98.01Z"/><path class="cls-1" d="M293.66,318.23c-2.69-.43-8.81,1.07-10.52-.99-1.36-1.63-5.49-16.67-7.31-20.69-8.83-19.5-28.33-39.32-51.59-36.24-17.51,2.32-27.52,21.86-21.08,37.91s54.32,33.95,70.02,43.98c71.94,45.97,23.79,134.89-57.73,119.73-10.04-1.87-29.37-11.18-38.17-6.58-4.52,2.36-4.1,8.51-13.63,5.88l-2-74.01,8.87.14c7.19,20.64,15.91,44.06,35.84,55.66,40.77,23.73,77.13-17.48,43.31-47.31-28.86-25.47-86.51-30.79-91-79-4.86-52.2,43.09-79.56,89.99-67.99,8.38,2.07,20.76,9.53,28.91,4.93,3.79-2.14,8.77-10.71,14.08-2.92l2,67.51Z"/><path class="cls-1" d="M307.65,237.22c-1.25-1.2,3.18-7,4.47-8.03,3.29-2.59,7.37-2.04,9.26-3.24.73-.47,1.44-3,3.29-4.21,5.88-3.83,5.75-2.62,11.45-8.55,2.6-2.7,4.99-2.34,6.09-6.91l4.23-93.37c-3.6-1.96-3.4-7.84-4.76-9.24-.55-.56-7.44-3.23-8.6-3.4-17.33-2.63-29.53,8.17-46.43,6.94l35.83,85.73c-7.03,22.92-40.28,26.84-59.81,18.75-6.25-2.59-20.12-12.22-18.86-19.73l36.84-86.73c-5.8-1.38-12.52-6.57-12-13.02,6.11-.12,7.44,5.68,13.73,7.76,16.4,5.44,34.2-11.9,52.77-12.77,3.94-.18,9.18,3.68,10.3-4.72.4-3.03-1.96-5.87-1.39-10.3s3.33-10.33,6.11-13.98c3.54-.84,7.49,12.66,7.49,15.5,0,4.78-2.34,9.09,1.14,14.36,5.96.48,11.95-.36,17.91.59,14.44,2.29,27.75,17.17,43.14,11.25,3.24-1.25,10.73-10.5,13.34-6.72,1.94,2.81-3.2,7.41-5.03,9.03-2.34,2.07-6.66,1.88-5.32,6.25l35.66,83.5c1.33,7.62-11.02,16.68-17.14,19.44-19.15,8.64-54.68,4.68-61.53-18.46l36.83-86.73c-11.72,3.92-23.44-4.8-34.49-6.01-4.56-.5-18.41-.07-21.52,3.5-1.64,1.89-.72,4.82-1.92,6.83-.6,1.01-2.49,1.23-3.12,2.08-2.45,3.33-.03,6.83.04,10.11.66,28.3,2.26,56.56,4.21,84.79,2.23,3.48,5.76,5.63,8.87,8.16,3.35,2.72,8.55,7.51,11.99,9.99,4.07,2.93,12.95,3.09,12.94,11.56h-86ZM453.65,191.22l-33-76v76h33ZM281.65,191.22v-75l-33,75h33ZM284.65,117.22v74c7.16.17,14.37-.22,21.54-.05,3.51.08,7.4,2.52,10.54-.59l-28.88-70.06-3.2-3.3ZM417.65,117.22l-31.84,71.74c-.31,5.58,3.85,2.26,5.34,2.26h26.5v-74Z"/><path class="cls-1" d="M346.88,462.43l.31,9.74c-1.35,3.13-5.34,2.5-7.04,4.04-1.52,1.39-13.7,24.86-13.52,26.44.26,2.24,3.41,3.4,1.08,6.88-2.2,3.29-6.91-.83-7.92,2.34-1.65,5.17,4.56,15.1-2.4,19.7-3.04,2.01-10.34,3.11-13.78,2.19-5.08-4.26-32.58-15.42-34.45-19.56-.59-1.31-1.61-7.84-1.61-9.48-.01-10.73,11.55-7.09,14.36-13.82,1.07-2.56-2.11-3.1-2.86-5.64-1.44-4.91,4-4.08,6.07-6.05,1.07-1.02,13.69-24.29,14.11-25.97.64-2.55-1.01-6.92.65-8.76,1.23-1.36,4.48-.78,6.06-1.45,1.86-.79,2.14-3.97,4.71-3.81-8.03-7.58-3.47-17.52,7.55-18.01,6.27-.28,31.91,13.7,38.14,17.84,1.09.72,2.71,1.59,3.41,2.65.56.86,1.03,8.74.89,9.94-1.21,10.14-12.13,7.94-13.76,10.81ZM322.61,431.27l-8.5-4.06c-8.06,3.27,9.82,12.8,8.5,4.06ZM301.53,488.1l14.14-26.39c.04-3.14-9.53-6.88-12.38-7.57l-15.56,27.46c.34,2.01,11.8,7.77,13.8,6.5ZM282.65,508.22c.54-4.47-5.26-6.52-8.99-5.99-.45,4.92,4.86,6.45,8.99,5.99Z"/><path class="cls-1" d="M341.65,499.22c-2.99,3.18-5.96,4.23-9.56,1.01-1.22-1.97,2.21-7.62,3.36-9.71,2.55-4.64,5.25-10.83,11.05-7.15.37.6.34,5.73.14,6.85-.02.11-.71,1.16-1,2-.16.46-.7,1.34-1,2-.15.33-.85.64-1,1-.2.48-.65,1.18-1,2-.23.55-.75.79-1,2Z"/><path class="cls-1" d="M346.65,490.22c4.84-5.17,11.24,3.01,15.69,5.81,34.39,21.62,73.35,34.64,107.61,55.39,5.77,3.5,19.54,9.96,15.7,17.79,3.12.39,2.13-3.36,5.74-3.86,4.02-.56,5.41,3.95,5.34,7.37-.23,10.05-12.07,17.56-14.09,4.5-9.51,3.22-20.53-3.99-29.01-8.47-31.7-16.75-60.07-40.94-92.62-56.38-3.7-1.76-18.63-6.46-19.84-9.09-.09-1.32.22-2.75.48-4.05.92-.98.82-1.77,1-2,.6-.76.72-1.62,1-2s.74-.62,1-1c.55-.79.8-1.74,1-2,.59-.77.92-1.91,1-2Z"/><path class="cls-1" d="M355.66,586.22l-146.01,1c-.54-9.61,1.44-20.4,12.59-21.92,16.14-2.2,36.56,1.3,52.87.96,21.87,1.13,48.61-2.61,70.06-.07,9.56,1.13,10.49,12.25,10.48,20.03ZM234.65,569.22h-15l-3,14h14.5c2.14-1.53,4.41-13.08,3.5-14Z"/><path class="cls-1" d="M340.65,562.22l-114.42,1.02c-2.09-.3.03-8.97,3.44-10.5h105.96c2.95,2.44,5.58,5.28,5.02,9.48ZM251.65,555.22h-18.5c-.96,0-3.2,3.58-2.5,5h20l1-5Z"/></svg>