<?xml version="1.0" encoding="UTF-8"?><svg id="Layer_1" xmlns="http://www.w3.org/2000/svg" viewBox="-165 -165 1652.13 1646.52"><defs><style>.cls-1{fill:#1c2a3b;}</style></defs><path class="cls-1" d="M1099.37,1149.73c-245.44,219.61-616.22,221.57-867.89,10.56C-45.39,928.14-78.46,508.4,156.98,233.84,386.36-33.64,786.3-79.9,1066.85,137.92c327.88,254.57,341.19,735.63,32.52,1011.82h0ZM864.68,49.63c-1.82-.72-3.89-.15-5.78-.76C532.27-56.89,180.23,116.24,60.26,434.12c-128.79,341.26,50.05,716.41,393.92,830.47,38.35,12.72,81.8,23.64,120.22,27.67,13.33,1.4,26.64,4.09,40.07,5.05,392.98,27.9,721.87-303.08,686.48-696.48-22.08-245.44-181.61-453.71-410.74-541.26-8.52-3.26-17.65-6.83-25.52-9.93h-.01Z"/><path class="cls-1" d="M1147.28,263.98c235.61,288.51,166.67,713.89-143.42,916.75-325.34,212.84-774.42,78.53-922.38-280.44C-24.84,642.33,51.9,345.53,268.48,172.35,539.43-44.31,928.73-3.64,1147.28,263.99h0ZM1109.6,247.66C963.67,89.05,738.83,16.91,526.94,66.81,173.73,149.99-34.3,516.66,87.49,863.28c129.44,368.39,575.83,514.26,903.98,303.06,314.3-202.29,372.29-642.44,118.13-918.67h0Z"/><path class="cls-1" d="M1126.37,287.89c202.08,252.83,162.47,622.09-86.86,826.48-342.47,280.74-867.39,105.33-960.28-328.83C8.86,456.66,220.27,145.36,544.92,76.78c217.07-45.85,444.41,39.65,581.46,211.11h-.01ZM1046.53,221.73C822.7,24.85,489.04,30.07,268.93,229.8-5.51,478.83,19.64,922.27,324.63,1134.13c242.57,168.51,570.76,130.79,768.67-86.93,218-239.83,196.19-611.77-46.77-825.47h0Z"/><path class="cls-1" d="M1023.95,499.31h-14.5c-12.59,0-31.43,12.17-40.97,20.03-29.47,24.26-61.37,56.94-89.05,83.95-7.59,7.4-14.84,15.17-22.53,22.48-2.74,4.46,4.14,11.19,7.09,15.02,34.63,45.09,70.6,89.48,105.96,134.04,17.68,22.28,35.11,46.49,54.27,67.22.66.71,16.11,7.44,17.69,7.83,4.35,1.07,10.49,1.1,15.06,1.44v18h-200v-18c14.65-.76,35.49,1.38,32.91-19.42-.75-6.05-10.48-18.89-14.5-24.49-28.48-39.72-61.95-76.85-89.92-117.08-9.98-4.78-12.65,6.05-14.5,13.49,1.37,33.61-1.81,68.61-.04,102.04,1.27,23.93,5.6,42.2,32.56,45.44,2.13.26,11.48-.86,11.48,1.52v16.5h-128c.29-1.81.41-4.62,1.09-6.21.42-.99,1.8-1.03,2.2-2.04,8.01-19.68-3.56-33.62-20.37-42.36l4.12-19.85-.17-263.91c-1.95-9.75-2.4-21.6-10.39-28.61-9-7.89-24.13-7.18-35.48-8.02v-19h187c.12,4.5-.15,9.04-.05,13.54.03,1.55,1.85,6.46-.45,6.46h-18c-.55,0-8.91,3.18-10.18,3.82-4.96,2.49-9.22,6.69-11.04,11.96-.61,1.78-4.28,16.79-4.28,17.72v131c0,3.82,2.59-.33,3.24-.82,12.6-9.6,26.05-23.13,37.64-34.3,24.9-23.99,49.35-48.87,73.08-73.92,7.96-8.41,21.45-17.59,22.93-30.07,1.1-9.23-.95-17.76-9.84-21.94-2.3-1.08-10.42-3.45-12.55-3.45h-14.5v-20c3.82-.07,7.66.11,11.49,0,22.47-.66,45.67-.94,67.97-1.04,23.34-.1,46.68.14,70.01.07,6.45,1.23,2.44,15.83,3.53,20.97h0Z"/><path class="cls-1" d="M533.95,470.31h19l4,132h-20c-11.47-40.19-32.73-88.21-74.75-103.75-31.83-11.77-66.34-5.07-77.26,30.23-11.31,36.56,10.32,53.49,38.34,69.69,69.73,40.29,166.95,63.37,160.66,165.32-5.77,93.51-105.85,127.91-186.2,109.22-16.48-3.83-46.37-17.59-61.49-8.91-3.83,2.2-8.38,9.98-9.04,10.19-5.17,1.63-12.81-.83-18.27.02l-2.99-140.01h18c19.15,58.77,50.86,123.53,123.54,118.04,39.86-3.01,61.21-44.75,43.98-80.06-23.13-47.41-124.78-68.44-163.55-111.45-36.78-40.81-36.07-109.53-.94-151,34.88-41.18,94.3-52.82,145.19-39.25,17.76,4.74,52.27,24.78,61.78-.28h0Z"/><path class="cls-1" d="M582.95,449.31c1.35-7.91,6.41-14.39,13.62-17.88,3.39-1.64,9.15-2.44,11.75-4.25,2.11-1.46,2.46-4.06,3.96-5.54,4.05-4.01,10.48-3.68,13.6-5.9,1.57-1.12,2.42-4.18,4.17-5.83,6.5-6.12,16.15-9.89,18.46-19.54,2.97-12.44,1.67-30.42,2.45-43.55,2.07-35.04,3.73-69.87,4.95-105.05.23-6.74,2.69-21.81,1.05-27.75-.14-.5-5.24-5.14-6.24-7.98-2.76-7.8,1.44-8.15-8.51-12.49-38.94-16.98-62.96,15.38-101.25,6.77-.38,1.61,1.39.42,1.95,1.73.41.96.28,2.57.84,3.95,21.82,54.11,46.73,107.24,67.2,161.71-13.16,35.17-51.7,42.8-85.54,40.64-26.17-1.67-53.4-16.39-63.39-41.54l70.92-167.01c-7.18.24-27.68-16.27-22.56-23.56,3.65-5.19,14.02,5.64,17.25,7.88,28.17,19.48,55-5.21,81.33-14.3,7.93-2.74,21.13-4.6,29.48-4.59,2.45,0,11.58,3.09,12.51,2.09.22-.24-.3-3.08.15-4.37s2.21-1.19,2.81-2.42c2.6-5.36-.53-11.47-.94-16.73-.71-8.95,3.99-26.17,10.11-32.86,3.68-4.03,4.84.58,6.89,3.86,5.39,8.64,8.67,18.78,8.02,29.05-.26,4.12-2.47,9.11-2.02,12.87.43,3.57,4.96,6.28,5.12,10.46,8.45,0,16.9-1.55,25.41-.91,29.98,2.28,58.83,33.5,89.01,23.09,7.33-2.53,16.2-13.86,21.97-14.11,12.32-.55-2.08,16.93-8.18,19.9-2.9,1.41-6.36,1.53-9.06,2.93-.9.47-1.64-.26-1.29,1.72.32,1.82,3.18,5.48,4.18,7.85,21.9,52.03,43.76,104.03,66.16,155.84,2.47,8.8-9.81,21.89-16.31,27.34-20.33,17.03-45.81,19.37-71.5,17.47-25.48-1.88-53.23-17.03-61.25-42.34,24.53-54.48,46.4-110.15,70.74-164.65h-24.5c-10.33,0-28.31-9.31-39.45-11.55s-34.13-1.91-43.11,6.99c-2.87,2.85-1.59,6.67-3.21,10.79s-6.34,6.1-6.74,8.26c-2.22,11.77,3.31,30.33.97,43.05,3.54,39.15,3.11,78.79,6.05,117.95.9,12.02.41,17.85,10.08,25.92,2.03,1.69,5.05,2.57,6.61,3.9,2.17,1.86,5.03,7.53,7.32,9.18,2.58,1.85,6.37,1.43,9.69,3.31,3.74,2.1,4.37,5.53,7.33,7.67,4.49,3.24,13.19,4.78,17.48,8.52,3.05,2.65,7.95,9.68,7.48,14.02h-164.02ZM859.95,361.31l-61.5-146.01-.5,146.01h62ZM539.95,217.31v145l61.01-1.51-61.01-143.49ZM792.95,361.31l-1.5-143.01-59.5,143.01h61ZM533.95,361.31v-140.5c0-.19-1.61-1.78-1.99-1.5l-59.01,142h61Z"/><path class="cls-1" d="M662.94,871.32c2.46,7.29-7.14.68-6.65,10.35.08,1.67,2.52,7.53,2.66,9.22.48,5.77-7.02,11.45-12.85,9.59-3.74,8.46-8.55,16.41-12.98,24.51-2.1,3.83-5.56,8.1-7.38,11.62-2.58,4.99-3.41,11.85-7.69,16.34-.56,1.56,5.41,4.58,5.77,5.96.17.65-2.24,7.04-2.81,7.72-3.33,4.03-11.6-.16-15.06-2.32,2.1,6.48-.91,11.56,2,17.99l-4,.99c7.97,3,4.43,19.14-1.05,23.47-2.12,1.67-8.13,3.45-10.69,3.29-1.49-.1-3.39-2.39-4.26-1.74-.18.14-.27,2.92-1.26,3.76-1.21,1.03-6.08,1.57-7.77.79-18.87-10.58-39.08-19.32-57.66-30.38-4.16-2.48-13.26-6.83-12.36-12.6.25-1.58,1.95-2.54,2.06-4.05.05-.68-1.98-.22-2.6-2.41-2.03-7.23.56-16.38,6.33-21.12,3.89-3.19,10.79-3.92,15.18-6.51,1.35-.79,3.47-4.4,5.03-6.05.8-.85,5.17-2.01,2.38-3.43-5.22-2.65-10.66-3.97-8.36-12.29.96-3.47,8.41-3.27,10.35-3.86,1.81-.55,15.24-27.44,17.48-31.52,2.45-4.46,13.79-21.28,13.21-24.66-.22-1.27-6.04-2.14-.86-9.99,5.11-7.75,9.6-.77,10.81-1.67.43-.32,3.08-7.89,5.06-9.44,2.46-1.92,5.22-1.26,7.95-.57-1-2.98-5.35-2.63-7.3-3.94-.3-.2-4.73-5.14-4.78-5.52-.99-7.85,3.8-21.13,12.63-22.49,2.52-.39,5.52.44,7.77-.07.8-.18.26-1.8,2.11-2.05,10.79-1.48,36.2,13.73,46.62,19.53s20.56,12.21,30.97,18.03c4.38,15.34,3.96,39.19-18.02,35.52h.02ZM610.69,823.05c2.69-2.62.11-4.45-1.84-6.16-3.61-3.15-17.93-11.99-16.93-2.11.39,3.77,15.43,11.52,18.76,8.27h.01ZM576.93,859.33c-.27-.18-1.36.05-1.97-.01l-29.92,53.62c-.42,1.33.7,1.64,1.62,2.17,6.6,3.83,15.31,6.31,21.8,10.96l31.46-51.77-.6-2.05-21.73-10.91c-.86-.52-.59-1.95-.68-2.01h.02ZM632.94,870.32l-2.98-1.01c-.5,2.63.57,2.09,2.98,1.99v-.98ZM641.95,876.3c-1.43-2.52-5.23-3.96-8-3.98,1.43,2.52,5.23,3.96,8,3.98ZM528.94,940.3c.72-1.4-.63-2.67-.98-1.99-.72,1.4.63,2.67.98,1.99ZM520.26,959c.84.63,11.41,5.3,12.06,5.17,1.74-.33,3.06-4.27,4.61-5.36-.02-.96-12.36-7.59-14.5-7.57-5.02.04-5.6,5.21-2.17,7.76h0Z"/><path class="cls-1" d="M915.95,1093.31c.95-.71.83-1.82,1-2,.32-.33.74-.63,1-1,2.08-2.93,2.04-1.54,3-6,2.76-4.86,5.11-12.73,11.48-12.83,20.87-.32,7.48,45.59-11.83,33.68-4.07-2.51-5.2-7.28-4.65-11.85h0Z"/><path class="cls-1" d="M651.95,938.31c-.5,1.21-.71,2.32-1,3-4.23,3.22-1.8,4.35-3,6-.08.11-1.75.12-2.41,1.04-.76,1.05-2.76,4.95-3.17,4.99-2.12.18-13.24-3.97-13.47-6.55-.26-2.99,17.72-34.85,19.67-35.43,16.72,5.3,8.08,15.71,3.38,26.95h0Z"/><path class="cls-1" d="M920.95,1084.31c-1.57,2.77-1.65,2.77-3,6-.13.31-.89.64-1,1-.06.22-.83.56-1,2-8.99,6.72-22.26.68-31.21-3.29-69.48-30.77-130.05-86.37-199.43-118.57-13.24-6.14-27.19-10.84-40.36-17.15-.55-.73,2.41-5.8,3-6.99,1.01-2.04,1.86-3.32,3-6,1.6-1.22.72-2.58,1-3,.86-1.3,2.6-2.71,3.8-4.7,1.66-2.75,3.93-10.84,7.24-9.91,23.96,15.86,48.44,30.81,73.94,44.13,44.57,23.29,91.48,42.32,135.69,66.31,11.92,6.47,36.23,19.54,44.73,29.27,5.44,6.22,5.25,13.2,3.6,20.9h0Z"/><path class="cls-1" d="M674.95,1111.31h-277c-1.6-8.54,1.03-25.81,6.98-32.52,1.97-2.22,3.62-2.1,5.58-3.46,1.01-.7,1.06-2.78,2.14-3.05,1.7-.43,13.92-.98,16.75-1.02,74.17-1.22,150.03,2.98,224.96,1.13,18.52,3.07,21.12,23.23,20.59,38.91h0ZM445.95,1078.31h-26.5c-4.73,0-8.01,22.45-8.5,27h30c.25-3.87,6.62-25.36,5-27Z"/><path class="cls-1" d="M426.95,1066.31c-.86-.82,5.22-21.52,11.44-19.06l197.04.07c5.95,4.11,11.77,10.88,10.52,18.99h-219ZM477.95,1053.31h-36.5c-1.54,0-3.15,6.32-2.5,8h35.5c1.44,0,4.43-6.11,3.5-8Z"/></svg>