<?xml version="1.0" encoding="UTF-8"?><svg id="Layer_1" xmlns="http://www.w3.org/2000/svg" viewBox="0 0 2048 2048"><defs><style>.cls-1{fill:#1c2a3b;}.cls-2{fill:#fdfefd;}</style></defs><path class="cls-2" d="M2048,0v2048H0V0h2048ZM1460.42,1487.42c308.67-276.19,295.36-757.25-32.52-1011.82-280.55-217.82-680.49-171.56-909.87,95.92-235.45,274.56-202.37,694.3,74.5,926.45,251.67,211.02,622.45,209.06,867.89-10.56Z"/><path class="cls-1" d="M1460.42,1487.42c-245.44,219.61-616.22,221.57-867.89,10.56-276.87-232.15-309.94-651.89-74.5-926.45,229.38-267.48,629.32-313.74,909.87-95.92,327.88,254.57,341.19,735.63,32.52,1011.82ZM1225.73,387.32c-1.82-.72-3.89-.15-5.78-.76-326.63-105.76-678.67,67.37-798.64,385.25-128.79,341.26,50.05,716.41,393.92,830.47,38.35,12.72,81.8,23.64,120.22,27.67,13.33,1.4,26.64,4.09,40.07,5.05,392.98,27.9,721.87-303.08,686.48-696.48-22.08-245.44-181.61-453.71-410.74-541.26-8.52-3.26-17.65-6.83-25.52-9.93Z"/><path class="cls-2" d="M1225.73,387.32c7.88,3.11,17,6.68,25.52,9.93,229.13,87.54,388.67,295.82,410.74,541.26,35.38,393.4-293.51,724.38-686.48,696.48-13.42-.95-26.73-3.65-40.07-5.05-38.42-4.03-81.86-14.95-120.22-27.67-343.86-114.06-522.7-489.21-393.92-830.47,119.96-317.88,472.01-491.01,798.64-385.25,1.89.61,3.95.04,5.78.76ZM1508.33,601.67c-218.55-267.62-607.86-308.29-878.8-91.64-216.58,173.18-293.32,469.98-187,727.94,147.96,358.97,597.04,493.28,922.38,280.44,310.09-202.86,379.03-628.24,143.42-916.75Z"/><path class="cls-1" d="M1508.33,601.67c235.61,288.51,166.67,713.89-143.42,916.75-325.34,212.84-774.42,78.53-922.38-280.44-106.32-257.96-29.58-554.76,187-727.94,270.95-216.66,660.25-175.99,878.8,91.64ZM1470.65,585.35c-145.93-158.61-370.77-230.75-582.66-180.85-353.21,83.18-561.24,449.85-439.45,796.47,129.44,368.39,575.83,514.26,903.98,303.06,314.3-202.29,372.29-642.44,118.13-918.67Z"/><path class="cls-2" d="M1470.65,585.35c254.16,276.24,196.17,716.39-118.13,918.67-328.15,211.2-774.54,65.33-903.98-303.06-121.79-346.62,86.25-713.29,439.45-796.47,211.89-49.9,436.73,22.25,582.66,180.85ZM1487.42,625.58c-137.04-171.46-364.39-256.97-581.46-211.11-324.65,68.58-536.06,379.88-465.69,708.76,92.9,434.16,617.82,609.57,960.28,328.83,249.33-204.39,288.94-573.65,86.86-826.48Z"/><path class="cls-1" d="M1487.42,625.58c202.08,252.83,162.47,622.09-86.86,826.48-342.47,280.74-867.39,105.33-960.28-328.83-70.37-328.88,141.04-640.18,465.69-708.76,217.07-45.85,444.41,39.65,581.46,211.11ZM1407.58,559.42c-223.83-196.88-557.49-191.66-777.6,8.07-274.44,249.03-249.29,692.47,55.7,904.33,242.57,168.51,570.76,130.79,768.67-86.93,218-239.83,196.19-611.77-46.77-825.47Z"/><path class="cls-2" d="M1407.58,559.42c242.96,213.7,264.77,585.64,46.77,825.47-197.91,217.72-526.09,255.43-768.67,86.93-304.98-211.86-330.14-655.3-55.7-904.33,220.11-199.73,553.76-204.95,777.6-8.07ZM944,787h164c.47-4.34-4.44-11.37-7.48-14.02-4.29-3.74-12.99-5.28-17.48-8.52-2.96-2.14-3.59-5.57-7.33-7.67-3.32-1.87-7.11-1.45-9.69-3.31-2.28-1.64-5.15-7.32-7.32-9.18-1.56-1.33-4.58-2.21-6.61-3.9-9.67-8.07-9.18-13.9-10.08-25.92-2.94-39.16-2.51-78.8-6.05-117.95,2.35-12.72-3.19-31.28-.97-43.05.41-2.15,5.21-4.33,6.74-8.26,1.62-4.13.33-7.95,3.21-10.79,8.98-8.9,31.52-9.32,43.11-6.99s29.12,11.55,39.45,11.55h24.5c-24.34,54.5-46.21,110.17-70.74,164.65,8.02,25.31,35.78,40.46,61.25,42.34,25.69,1.9,51.17-.45,71.5-17.47,6.5-5.45,18.78-18.54,16.31-27.34-22.4-51.81-44.26-103.82-66.16-155.84-1-2.37-3.86-6.04-4.18-7.85-.35-1.98.38-1.25,1.29-1.72,2.7-1.4,6.16-1.52,9.06-2.93,6.11-2.97,20.5-20.45,8.18-19.9-5.77.26-14.64,11.59-21.97,14.11-30.18,10.41-59.03-20.81-89.01-23.09-8.5-.65-16.96.9-25.41.91-.16-4.18-4.69-6.89-5.12-10.46-.46-3.76,1.76-8.75,2.02-12.87.65-10.27-2.62-20.41-8.02-29.05-2.04-3.28-3.2-7.89-6.89-3.86-6.12,6.69-10.82,23.9-10.11,32.86.42,5.26,3.55,11.37.94,16.73-.6,1.23-2.37,1.15-2.81,2.42s.07,4.13-.15,4.37c-.93,1-10.06-2.08-12.51-2.09-8.36-.01-21.56,1.85-29.48,4.59-26.33,9.09-53.16,33.79-81.33,14.3-3.23-2.24-13.6-13.07-17.25-7.88-5.13,7.28,15.38,23.8,22.56,23.56l-70.92,167.01c9.99,25.15,37.21,39.87,63.39,41.54,33.83,2.16,72.38-5.48,85.54-40.64-20.47-54.47-45.38-107.6-67.2-161.71-.56-1.38-.43-2.99-.84-3.95-.56-1.31-2.32-.12-1.95-1.73,38.29,8.62,62.31-23.75,101.25-6.77,9.95,4.34,5.75,4.69,8.51,12.49,1.01,2.84,6.11,7.49,6.24,7.98,1.63,5.93-.82,21.01-1.05,27.75-1.22,35.18-2.88,70.01-4.95,105.05-.77,13.14.52,31.12-2.45,43.55-2.31,9.66-11.96,13.42-18.46,19.54-1.75,1.65-2.6,4.71-4.17,5.83-3.12,2.22-9.55,1.89-13.6,5.9-1.5,1.48-1.85,4.08-3.96,5.54-2.61,1.8-8.36,2.61-11.75,4.25-7.22,3.49-12.28,9.96-13.62,17.88ZM895,808c-9.52,25.07-44.03,5.02-61.78.28-50.89-13.57-110.31-1.93-145.19,39.25-35.13,41.47-35.84,110.19.94,151,38.77,43.02,140.41,64.04,163.55,111.45,17.23,35.31-4.12,77.05-43.98,80.06-72.68,5.49-104.39-59.27-123.54-118.04h-18l2.99,140.01c5.46-.85,13.1,1.61,18.27-.02.65-.21,5.2-7.99,9.04-10.19,15.12-8.69,45.01,5.07,61.49,8.91,80.35,18.69,180.43-15.7,186.2-109.22,6.29-101.95-90.93-125.03-160.66-165.32-28.02-16.19-49.65-33.13-38.34-69.69,10.92-35.31,45.43-42,77.26-30.23,42.03,15.54,63.28,63.56,74.75,103.75h20l-4-132h-19ZM1385,837c-1.09-5.14,2.92-19.75-3.53-20.97-23.33.07-46.68-.18-70.01-.07-22.31.1-45.5.38-67.97,1.04-3.83.11-7.67-.06-11.49,0v20h14.5c2.12,0,10.25,2.37,12.55,3.45,8.89,4.18,10.94,12.71,9.84,21.94-1.48,12.48-14.96,21.66-22.93,30.07-23.73,25.05-48.18,49.93-73.08,73.92-11.59,11.17-25.04,24.7-37.64,34.3-.64.49-3.24,4.64-3.24.82v-131c0-.94,3.66-15.94,4.28-17.72,1.82-5.27,6.08-9.47,11.04-11.96,1.27-.64,9.63-3.82,10.18-3.82h18c2.3,0,.49-4.91.45-6.46-.1-4.51.17-9.05.05-13.54h-187v19c11.35.84,26.48.14,35.48,8.02,7.99,7.01,8.45,18.85,10.39,28.61l.17,263.91-4.12,19.85c16.82,8.74,28.38,22.68,20.37,42.36-.41,1.01-1.78,1.05-2.2,2.04-.68,1.59-.8,4.39-1.09,6.21h128v-16.5c0-2.37-9.35-1.26-11.48-1.52-26.96-3.25-31.29-21.51-32.56-45.44-1.77-33.44,1.41-68.44.04-102.04,1.85-7.44,4.52-18.27,14.5-13.49,27.97,40.23,61.44,77.35,89.92,117.08,4.02,5.6,13.75,18.44,14.5,24.49,2.58,20.8-18.26,18.66-32.91,19.42v18h200v-18c-4.57-.34-10.71-.37-15.06-1.44-1.58-.39-17.03-7.12-17.69-7.83-19.15-20.74-36.58-44.94-54.27-67.22-35.36-44.56-71.32-88.94-105.96-134.04-2.95-3.84-9.83-10.56-7.09-15.02,7.69-7.3,14.94-15.07,22.53-22.48,27.69-27,59.58-59.68,89.05-83.95,9.55-7.86,28.38-20.03,40.97-20.03h14.5ZM1023.99,1209.01c21.99,3.66,22.41-20.19,18.02-35.52-10.41-5.82-20.55-12.22-30.97-18.03-10.42-5.8-35.82-21.01-46.62-19.53-1.86.26-1.32,1.87-2.11,2.05-2.24.51-5.24-.32-7.77.07-8.83,1.36-13.61,14.63-12.63,22.49.05.38,4.48,5.31,4.78,5.52,1.94,1.31,6.29.95,7.3,3.94-2.73-.69-5.49-1.35-7.95.57-1.98,1.55-4.63,9.12-5.06,9.44-1.21.9-5.69-6.08-10.81,1.67-5.18,7.86.64,8.72.86,9.99.58,3.38-10.75,20.2-13.21,24.66-2.25,4.08-15.67,30.96-17.48,31.52-1.94.59-9.39.39-10.35,3.86-2.3,8.32,3.14,9.65,8.36,12.29,2.79,1.42-1.58,2.58-2.38,3.43-1.55,1.65-3.68,5.25-5.03,6.05-4.39,2.59-11.29,3.31-15.18,6.51-5.78,4.74-8.37,13.89-6.33,21.12.62,2.19,2.65,1.73,2.6,2.41-.11,1.51-1.81,2.47-2.06,4.05-.9,5.77,8.2,10.13,12.36,12.6,18.57,11.07,38.79,19.8,57.66,30.38,1.69.78,6.56.24,7.77-.79.99-.84,1.08-3.63,1.26-3.76.86-.65,2.76,1.64,4.26,1.74,2.56.16,8.57-1.61,10.69-3.29,5.48-4.33,9.02-20.47,1.05-23.47l4-.99c-2.9-6.43.11-11.51-2-17.99,3.46,2.16,11.73,6.35,15.06,2.32.56-.68,2.98-7.07,2.81-7.72-.37-1.38-6.33-4.4-5.77-5.96,4.28-4.49,5.12-11.36,7.69-16.34,1.82-3.53,5.28-7.8,7.38-11.62,4.44-8.1,9.25-16.05,12.98-24.51,5.83,1.86,13.33-3.82,12.85-9.59-.14-1.69-2.57-7.55-2.66-9.22-.49-9.66,9.11-3.06,6.65-10.35ZM1013,1276c4.7-11.24,13.34-21.65-3.38-26.95-1.95.58-19.93,32.44-19.67,35.43.23,2.58,11.34,6.73,13.47,6.55.41-.04,2.42-3.94,3.17-4.99.67-.93,2.33-.93,2.41-1.04-.59,1.19-3.55,6.25-3,6.99,13.17,6.31,27.12,11.01,40.36,17.15,69.38,32.2,129.95,87.8,199.43,118.57,8.95,3.96,22.22,10.01,31.21,3.29-.55,4.56.58,9.33,4.65,11.85,19.31,11.91,32.7-34,11.83-33.68-6.37.1-8.72,7.96-11.48,12.83,1.65-7.7,1.84-14.68-3.6-20.9-8.5-9.73-32.81-22.8-44.73-29.27-44.22-23.99-91.12-43.02-135.69-66.31-25.5-13.32-49.98-28.27-73.94-44.13-3.31-.94-5.58,7.15-7.24,9.91-1.2,1.99-2.95,3.4-3.8,4.7ZM788,1404h219c1.26-8.1-4.57-14.87-10.52-18.99l-197.04-.07c-6.23-2.47-12.31,18.24-11.44,19.06ZM1036,1449c.54-15.68-2.06-35.84-20.59-38.91-74.94,1.85-150.79-2.36-224.96-1.13-2.84.05-15.06.6-16.75,1.02-1.08.27-1.13,2.34-2.14,3.05-1.96,1.36-3.61,1.23-5.58,3.46-5.95,6.71-8.58,23.98-6.98,32.52h277Z"/><path class="cls-2" d="M1012,1279c.29-.68.5-1.79,1-3-.28.42.6,1.78-1,3Z"/><path class="cls-2" d="M1012,1279c-1.14,2.68-1.99,3.96-3,6,1.2-1.65-1.23-2.78,3-6Z"/><path class="cls-2" d="M1279,1428c1.35-3.23,1.43-3.23,3-6-.96,4.46-.92,3.07-3,6Z"/><path class="cls-2" d="M1278,1429c.11-.36.87-.69,1-1-.26.37-.68.67-1,1Z"/><path class="cls-2" d="M1277,1431c.17-1.44.94-1.78,1-2-.17.18-.05,1.29-1,2Z"/><path class="cls-1" d="M1385,837h-14.5c-12.59,0-31.43,12.17-40.97,20.03-29.47,24.26-61.37,56.94-89.05,83.95-7.59,7.4-14.84,15.17-22.53,22.48-2.74,4.46,4.14,11.19,7.09,15.02,34.63,45.09,70.6,89.48,105.96,134.04,17.68,22.28,35.11,46.49,54.27,67.22.66.71,16.11,7.44,17.69,7.83,4.35,1.07,10.49,1.1,15.06,1.44v18h-200v-18c14.65-.76,35.49,1.38,32.91-19.42-.75-6.05-10.48-18.89-14.5-24.49-28.48-39.72-61.95-76.85-89.92-117.08-9.98-4.78-12.65,6.05-14.5,13.49,1.37,33.61-1.81,68.61-.04,102.04,1.27,23.93,5.6,42.2,32.56,45.44,2.13.26,11.48-.86,11.48,1.52v16.5h-128c.29-1.81.41-4.62,1.09-6.21.42-.99,1.8-1.03,2.2-2.04,8.01-19.68-3.56-33.62-20.37-42.36l4.12-19.85-.17-263.91c-1.95-9.75-2.4-21.6-10.39-28.61-9-7.89-24.13-7.18-35.48-8.02v-19h187c.12,4.5-.15,9.04-.05,13.54.03,1.55,1.85,6.46-.45,6.46h-18c-.55,0-8.91,3.18-10.18,3.82-4.96,2.49-9.22,6.69-11.04,11.96-.61,1.78-4.28,16.79-4.28,17.72v131c0,3.82,2.59-.33,3.24-.82,12.6-9.6,26.05-23.13,37.64-34.3,24.9-23.99,49.35-48.87,73.08-73.92,7.96-8.41,21.45-17.59,22.93-30.07,1.1-9.23-.95-17.76-9.84-21.94-2.3-1.08-10.42-3.45-12.55-3.45h-14.5v-20c3.82-.07,7.66.11,11.49,0,22.47-.66,45.67-.94,67.97-1.04,23.34-.1,46.68.14,70.01.07,6.45,1.23,2.44,15.83,3.53,20.97Z"/><path class="cls-1" d="M895,808h19l4,132h-20c-11.47-40.19-32.73-88.21-74.75-103.75-31.83-11.77-66.34-5.07-77.26,30.23-11.31,36.56,10.32,53.49,38.34,69.69,69.73,40.29,166.95,63.37,160.66,165.32-5.77,93.51-105.85,127.91-186.2,109.22-16.48-3.83-46.37-17.59-61.49-8.91-3.83,2.2-8.38,9.98-9.04,10.19-5.17,1.63-12.81-.83-18.27.02l-2.99-140.01h18c19.15,58.77,50.86,123.53,123.54,118.04,39.86-3.01,61.21-44.75,43.98-80.06-23.13-47.41-124.78-68.44-163.55-111.45-36.78-40.81-36.07-109.53-.94-151,34.88-41.18,94.3-52.82,145.19-39.25,17.76,4.74,52.27,24.78,61.78-.28Z"/><path class="cls-1" d="M944,787c1.35-7.91,6.41-14.39,13.62-17.88,3.39-1.64,9.15-2.44,11.75-4.25,2.11-1.46,2.46-4.06,3.96-5.54,4.05-4.01,10.48-3.68,13.6-5.9,1.57-1.12,2.42-4.18,4.17-5.83,6.5-6.12,16.15-9.89,18.46-19.54,2.97-12.44,1.67-30.42,2.45-43.55,2.07-35.04,3.73-69.87,4.95-105.05.23-6.74,2.69-21.81,1.05-27.75-.14-.5-5.24-5.14-6.24-7.98-2.76-7.8,1.44-8.15-8.51-12.49-38.94-16.98-62.96,15.38-101.25,6.77-.38,1.61,1.39.42,1.95,1.73.41.96.28,2.57.84,3.95,21.82,54.11,46.73,107.24,67.2,161.71-13.16,35.17-51.7,42.8-85.54,40.64-26.17-1.67-53.4-16.39-63.39-41.54l70.92-167.01c-7.18.24-27.68-16.27-22.56-23.56,3.65-5.19,14.02,5.64,17.25,7.88,28.17,19.48,55-5.21,81.33-14.3,7.93-2.74,21.13-4.6,29.48-4.59,2.45,0,11.58,3.09,12.51,2.09.22-.24-.3-3.08.15-4.37s2.21-1.19,2.81-2.42c2.6-5.36-.53-11.47-.94-16.73-.71-8.95,3.99-26.17,10.11-32.86,3.68-4.03,4.84.58,6.89,3.86,5.39,8.64,8.67,18.78,8.02,29.05-.26,4.12-2.47,9.11-2.02,12.87.43,3.57,4.96,6.28,5.12,10.46,8.45,0,16.9-1.55,25.41-.91,29.98,2.28,58.83,33.5,89.01,23.09,7.33-2.53,16.2-13.86,21.97-14.11,12.32-.55-2.08,16.93-8.18,19.9-2.9,1.41-6.36,1.53-9.06,2.93-.9.47-1.64-.26-1.29,1.72.32,1.82,3.18,5.48,4.18,7.85,21.9,52.03,43.76,104.03,66.16,155.84,2.47,8.8-9.81,21.89-16.31,27.34-20.33,17.03-45.81,19.37-71.5,17.47-25.48-1.88-53.23-17.03-61.25-42.34,24.53-54.48,46.4-110.15,70.74-164.65h-24.5c-10.33,0-28.31-9.31-39.45-11.55s-34.13-1.91-43.11,6.99c-2.87,2.85-1.59,6.67-3.21,10.79s-6.34,6.1-6.74,8.26c-2.22,11.77,3.31,30.33.97,43.05,3.54,39.15,3.11,78.79,6.05,117.95.9,12.02.41,17.85,10.08,25.92,2.03,1.69,5.05,2.57,6.61,3.9,2.17,1.86,5.03,7.53,7.32,9.18,2.58,1.85,6.37,1.43,9.69,3.31,3.74,2.1,4.37,5.53,7.33,7.67,4.49,3.24,13.19,4.78,17.48,8.52,3.05,2.65,7.95,9.68,7.48,14.02h-164ZM1221,699l-61.5-146.01-.5,146.01h62ZM901,555v145l61.01-1.51-61.01-143.49ZM1154,699l-1.5-143.01-59.5,143.01h61ZM895,699v-140.5c0-.19-1.61-1.78-1.99-1.5l-59.01,142h61Z"/><path class="cls-1" d="M1023.99,1209.01c2.46,7.29-7.14.68-6.65,10.35.08,1.67,2.52,7.53,2.66,9.22.48,5.77-7.02,11.45-12.85,9.59-3.74,8.46-8.55,16.41-12.98,24.51-2.1,3.83-5.56,8.1-7.38,11.62-2.58,4.99-3.41,11.85-7.69,16.34-.56,1.56,5.41,4.58,5.77,5.96.17.65-2.24,7.04-2.81,7.72-3.33,4.03-11.6-.16-15.06-2.32,2.1,6.48-.91,11.56,2,17.99l-4,.99c7.97,3,4.43,19.14-1.05,23.47-2.12,1.67-8.13,3.45-10.69,3.29-1.49-.1-3.39-2.39-4.26-1.74-.18.14-.27,2.92-1.26,3.76-1.21,1.03-6.08,1.57-7.77.79-18.87-10.58-39.08-19.32-57.66-30.38-4.16-2.48-13.26-6.83-12.36-12.6.25-1.58,1.95-2.54,2.06-4.05.05-.68-1.98-.22-2.6-2.41-2.03-7.23.56-16.38,6.33-21.12,3.89-3.19,10.79-3.92,15.18-6.51,1.35-.79,3.47-4.4,5.03-6.05.8-.85,5.17-2.01,2.38-3.43-5.22-2.65-10.66-3.97-8.36-12.29.96-3.47,8.41-3.27,10.35-3.86,1.81-.55,15.24-27.44,17.48-31.52,2.45-4.46,13.79-21.28,13.21-24.66-.22-1.27-6.04-2.14-.86-9.99,5.11-7.75,9.6-.77,10.81-1.67.43-.32,3.08-7.89,5.06-9.44,2.46-1.92,5.22-1.26,7.95-.57-1-2.98-5.35-2.63-7.3-3.94-.3-.2-4.73-5.14-4.78-5.52-.99-7.85,3.8-21.13,12.63-22.49,2.52-.39,5.52.44,7.77-.07.8-.18.26-1.8,2.11-2.05,10.79-1.48,36.2,13.73,46.62,19.53,10.42,5.8,20.56,12.21,30.97,18.03,4.38,15.34,3.96,39.19-18.02,35.52ZM971.74,1160.74c2.69-2.62.11-4.45-1.84-6.16-3.61-3.15-17.93-11.99-16.93-2.11.39,3.77,15.43,11.52,18.76,8.27ZM937.98,1197.02c-.27-.18-1.36.05-1.97-.01l-29.92,53.62c-.42,1.33.7,1.64,1.62,2.17,6.6,3.83,15.31,6.31,21.8,10.96l31.46-51.77-.6-2.05-21.73-10.91c-.86-.52-.59-1.95-.68-2.01ZM993.99,1208.01l-2.98-1.01c-.5,2.63.57,2.09,2.98,1.99v-.98ZM1003,1213.99c-1.43-2.52-5.23-3.96-8-3.98,1.43,2.52,5.23,3.96,8,3.98ZM889.99,1277.99c.72-1.4-.63-2.67-.98-1.99-.72,1.4.63,2.67.98,1.99ZM881.31,1296.69c.84.63,11.41,5.3,12.06,5.17,1.74-.33,3.06-4.27,4.61-5.36-.02-.96-12.36-7.59-14.5-7.57-5.02.04-5.6,5.21-2.17,7.76Z"/><path class="cls-1" d="M1277,1431c.95-.71.83-1.82,1-2,.32-.33.74-.63,1-1,2.08-2.93,2.04-1.54,3-6,2.76-4.86,5.11-12.73,11.48-12.83,20.87-.32,7.48,45.59-11.83,33.68-4.07-2.51-5.2-7.28-4.65-11.85Z"/><path class="cls-1" d="M1013,1276c-.5,1.21-.71,2.32-1,3-4.23,3.22-1.8,4.35-3,6-.08.11-1.75.12-2.41,1.04-.76,1.05-2.76,4.95-3.17,4.99-2.12.18-13.24-3.97-13.47-6.55-.26-2.99,17.72-34.85,19.67-35.43,16.72,5.3,8.08,15.71,3.38,26.95Z"/><path class="cls-1" d="M1282,1422c-1.57,2.77-1.65,2.77-3,6-.13.31-.89.64-1,1-.06.22-.83.56-1,2-8.99,6.72-22.26.68-31.21-3.29-69.48-30.77-130.05-86.37-199.43-118.57-13.24-6.14-27.19-10.84-40.36-17.15-.55-.73,2.41-5.8,3-6.99,1.01-2.04,1.86-3.32,3-6,1.6-1.22.72-2.58,1-3,.86-1.3,2.6-2.71,3.8-4.7,1.66-2.75,3.93-10.84,7.24-9.91,23.96,15.86,48.44,30.81,73.94,44.13,44.57,23.29,91.48,42.32,135.69,66.31,11.92,6.47,36.23,19.54,44.73,29.27,5.44,6.22,5.25,13.2,3.6,20.9Z"/><path class="cls-1" d="M1036,1449h-277c-1.6-8.54,1.03-25.81,6.98-32.52,1.97-2.22,3.62-2.1,5.58-3.46,1.01-.7,1.06-2.78,2.14-3.05,1.7-.43,13.92-.98,16.75-1.02,74.17-1.22,150.03,2.98,224.96,1.13,18.52,3.07,21.12,23.23,20.59,38.91ZM807,1416h-26.5c-4.73,0-8.01,22.45-8.5,27h30c.25-3.87,6.62-25.36,5-27Z"/><path class="cls-1" d="M788,1404c-.86-.82,5.22-21.52,11.44-19.06l197.04.07c5.95,4.11,11.77,10.88,10.52,18.99h-219ZM839,1391h-36.5c-1.54,0-3.15,6.32-2.5,8h35.5c1.44,0,4.43-6.11,3.5-8Z"/><polygon class="cls-2" points="1221 699 1159 699 1159.5 552.99 1221 699"/><polygon class="cls-2" points="1154 699 1093 699 1152.5 555.99 1154 699"/><path class="cls-2" d="M895,699h-61l59.01-142c.37-.29,1.99,1.31,1.99,1.5v140.5Z"/><polygon class="cls-2" points="901 555 962.01 698.49 901 700 901 555"/><path class="cls-2" d="M937.98,1197.02c.09.06-.18,1.49.68,2.01l21.73,10.91.6,2.05-31.46,51.77c-6.49-4.65-15.21-7.13-21.8-10.96-.91-.53-2.04-.83-1.62-2.17l29.92-53.62c.61.06,1.7-.17,1.97.01Z"/><path class="cls-2" d="M971.74,1160.74c-3.33,3.25-18.38-4.49-18.76-8.27-1.01-9.88,13.32-1.04,16.93,2.11,1.95,1.7,4.52,3.53,1.84,6.16Z"/><path class="cls-2" d="M881.31,1296.69c-3.43-2.55-2.85-7.73,2.17-7.76,2.15-.02,14.48,6.61,14.5,7.57-1.55,1.09-2.88,5.04-4.61,5.36-.64.12-11.22-4.55-12.06-5.17Z"/><path class="cls-2" d="M1003,1213.99c-2.76-.02-6.57-1.46-8-3.98,2.76.02,6.57,1.46,8,3.98Z"/><path class="cls-2" d="M993.99,1208.01v.98c-2.41.1-3.48.64-2.98-1.99l2.98,1.01Z"/><path class="cls-2" d="M889.99,1277.99c-.35.68-1.7-.59-.98-1.99.35-.68,1.7.59.98,1.99Z"/><path class="cls-2" d="M807,1416c1.62,1.64-4.75,23.13-5,27h-30c.49-4.55,3.77-27,8.5-27h26.5Z"/><path class="cls-2" d="M839,1391c.93,1.89-2.06,8-3.5,8h-35.5c-.65-1.68.96-8,2.5-8h36.5Z"/></svg>